<svg xmlns="http://www.w3.org/2000/svg" width="499" height="433"><g fill="none" fill-rule="evenodd" opacity=".2"><path stroke="#9BB2D8" stroke-linecap="round" stroke-linejoin="round" stroke-width="31" d="M250.448 179.548 114.552 314.452"/><path stroke="#9BB2D8" stroke-linecap="round" stroke-linejoin="round" stroke-width="3" d="m340.444 299.554-38.888 39.892"/><path stroke="#9BB2D8" stroke-linecap="round" stroke-linejoin="round" stroke-width="31" d="m426.454 55.546-57.908 57.908"/><path stroke="#9BB2D8" stroke-linecap="round" stroke-linejoin="round" stroke-width="56" d="m207 339-66.451 65.45"/><path stroke="#9BB2D8" stroke-linecap="round" stroke-linejoin="round" stroke-width="12" d="m349 72-50.446 50.446M340 175l-15 15"/><circle cx="373.5" cy="252.5" r="26.5" fill="#9BB2D8"/><circle cx="67.5" cy="247.5" r="26.5" fill="#9BB2D8"/><path fill="#9BB2D8" d="m190.925 71.693 57.341-59.325c6.148-6.339 16.27-6.516 22.635-.395l3.912 3.775c6.37 6.125 6.55 16.254.415 22.613-.003.004-.007.007-.02 0l-57.341 59.325c-6.148 6.34-16.27 6.516-22.635.395l-3.912-3.774c-6.37-6.126-6.55-16.255-.415-22.614.003-.003.007-.007.02 0M108.68 193.782l9.948-10.291a3.857 3.857 0 0 1 5.451-.095 3.85 3.85 0 0 1 .095 5.446l-9.947 10.292a3.857 3.857 0 0 1-5.452.095 3.85 3.85 0 0 1-.095-5.447M2.932 364.367l8.417-8.709a3.857 3.857 0 0 1 5.452-.095 3.85 3.85 0 0 1 .097 5.444l-.002.003-8.417 8.708a3.857 3.857 0 0 1-5.452.095 3.85 3.85 0 0 1-.097-5.444zM221.933 139l51.408-53.187a1.003 1.003 0 0 1 1.415-.025l.145.14a1 1 0 0 1 .025 1.414l-51.409 53.186a1.003 1.003 0 0 1-1.414.025l-.146-.14a1 1 0 0 1-.026-1.414zM97.458 186.323l51.409-53.187a1.003 1.003 0 0 1 1.414-.025l.146.14a1 1 0 0 1 .024 1.414l-51.408 53.187a1.003 1.003 0 0 1-1.415.024l-.145-.14a1 1 0 0 1-.026-1.413zM234.397 301.52l73.67-76.217a1.504 1.504 0 0 1 2.122-.037l.218.21a1.5 1.5 0 0 1 .037 2.12l-73.67 76.218a1.504 1.504 0 0 1-2.122.037l-.218-.21a1.5 1.5 0 0 1-.039-2.12zM364.727 197.71 493.56 64.42a2.005 2.005 0 0 1 2.83-.05l.29.28a1.997 1.997 0 0 1 .05 2.827l-128.835 133.29a2.005 2.005 0 0 1-2.829.05l-.29-.28a1.997 1.997 0 0 1-.05-2.827"/></g></svg>